<svg width="20" height="14" viewBox="0 0 20 14" fill="none" xmlns="http://www.w3.org/2000/svg">
<path d="M19.5788 2.18592C19.465 1.7631 19.2421 1.37758 18.9325 1.06796C18.6229 0.758344 18.2373 0.535474 17.8145 0.421664C16.2574 0.00024423 10.0004 0.000244141 10.0004 0.000244141C10.0004 0.000244141 3.74333 0.00024423 2.18621 0.421664C1.76339 0.535474 1.37788 0.758344 1.06826 1.06796C0.758637 1.37758 0.535769 1.7631 0.421959 2.18592C0.131211 3.77394 -0.00988161 5.38574 0.000537443 7.00012C-0.00988161 8.61454 0.131211 10.2263 0.421959 11.8143C0.535769 12.2371 0.758637 12.6226 1.06826 12.9322C1.37788 13.2419 1.76339 13.4647 2.18621 13.5785C3.74333 14 10.0004 14 10.0004 14C10.0004 14 16.2574 14 17.8145 13.5785C18.2373 13.4647 18.6229 13.2419 18.9325 12.9322C19.2421 12.6226 19.465 12.2371 19.5788 11.8143C19.8695 10.2263 20.0106 8.61454 20.0002 7.00012C20.0106 5.38574 19.8695 3.77394 19.5788 2.18592ZM8.0004 10V4.00017L13.1932 7.00012L8.0004 10Z" fill="white"/>
</svg>
